<?xml version="1.0" encoding="UTF-8"?><svg xmlns="http://www.w3.org/2000/svg" height="186.99" id="Layer_1" version="1.1" viewBox="0 0 271.29 186.99" width="271.29" x="0" xml:space="preserve" y="0" style="filter: drop-shadow(-1px 0px 0px #000);"><linearGradient gradientUnits="userSpaceOnUse" id="SVGID_1_" x1="147.534" x2="131.979" y1="14.034" y2="197.588"><stop offset=".094" stop-color="#d7af4d"/><stop offset="1" stop-color="#c08e31"/></linearGradient><path d="M248.22,79.31l23.06,31.53v14.72l-23.06-25.37l-64.02,25.37v-14.72L248.22,79.31z M184.2,131.03v14.72 l64.02-16.91l23.06,16.91v-14.72l-23.06-23.08L184.2,131.03z M184.2,151.22v14.72l64.02-8.46l23.06,8.46v-14.72l-23.06-14.62 L184.2,151.22z M184.2,171.41v14.72h64.02h23.06v-14.72l-23.06-6.17L184.2,171.41z M248.22,50.66L184.2,90.65v14.72l64.02-33.82 l23.06,33.82V90.65L248.22,50.66z M0,122.57V135l24.98-21.42L73.9,135v-12.43L24.98,95.94L0,122.57z M0,139.61v12.43l24.98-14.28 l48.92,14.28v-12.43l-48.92-19.48L0,139.61z M0,156.66v12.43l24.98-7.14l48.92,7.14v-12.43l-48.92-12.34L0,156.66z M25.12,168.59 l-0.05,0.01l-0.1-0.01v0.03L0,173.8v12.43h24.98h0.15H73.9V173.8l-48.77-5.19V168.59z M131.81,186.84h11.24V7.49L131.81,0V186.84z M150.11,186.99h11.24V19.69l-11.24-7.49V186.99z M168.41,186.99h11.24V31.89l-11.24-7.49V186.99z M114.08,186.84h11.24V0 l-11.24,7.49V186.84z M95.79,186.99h11.24V12.2l-11.24,7.49V186.99z M77.49,186.99h11.24V24.39l-11.24,7.49V186.99z" fill="url(#SVGID_1_)"/></svg>