<svg xmlns="http://www.w3.org/2000/svg" x="0px" y="0px"
width="64" height="64"
viewBox="0 0 172 172"
style=" fill:#000000;"><g fill="none" fill-rule="nonzero" stroke="none" stroke-width="1" stroke-linecap="butt" stroke-linejoin="miter" stroke-miterlimit="10" stroke-dasharray="" stroke-dashoffset="0" font-family="none" font-weight="none" font-size="none" text-anchor="none" style="mix-blend-mode: normal"><path d="M0,172v-172h172v172z" fill="none"></path><g fill="#ffffff"><path d="M80.625,10.75c-1.48427,0 -2.6875,1.20323 -2.6875,2.6875v10.75c0,1.48427 -1.20323,2.6875 -2.6875,2.6875c-1.48427,0 -2.6875,-1.20323 -2.6875,-2.6875v-4.43018c-6.60919,3.8818 -11.27757,10.36799 -12.86011,17.86768h52.63721c-1.0385,-5.16555 -3.59334,-9.90425 -7.33814,-13.61072c-1.65814,-1.65891 -3.52913,-3.0904 -5.56396,-4.25696v4.43018c0,1.48427 -1.20323,2.6875 -2.6875,2.6875c-1.48427,0 -2.6875,-1.20323 -2.6875,-2.6875v-10.75c0,-1.48427 -1.20323,-2.6875 -2.6875,-2.6875zM56.4375,43c-1.48887,0 -2.6875,1.19863 -2.6875,2.6875v5.375c0,1.48887 1.19863,2.6875 2.6875,2.6875h59.125c1.48888,0 2.6875,-1.19863 2.6875,-2.6875v-5.375c0,-1.48887 -1.19862,-2.6875 -2.6875,-2.6875zM59.29297,59.125l0.88708,13.6947c0.38984,5.36134 2.46606,10.46186 5.9314,14.57129c6.74974,8.09497 17.73186,11.29207 27.77186,8.08489c10.04,-3.20717 17.13495,-12.1788 17.94188,-22.68768l0.88184,-13.66321zM112.875,86.8136c-5.17664,8.74253 -14.28406,14.41887 -24.41295,15.21577c-10.12889,0.7969 -20.01194,-3.38535 -26.49208,-11.21077c-1.05325,-1.25171 -2.00462,-2.58572 -2.84497,-3.98926v20.67065h53.75zM53.75,89.02869l-5.375,2.33582v69.8855h13.4375v-24.1875c0,-1.48427 1.20323,-2.6875 2.6875,-2.6875h43c1.48427,0 2.6875,1.20323 2.6875,2.6875v24.1875h13.4375v-69.8855l-5.375,-2.33582v21.15881c0,1.48427 -1.20323,2.6875 -2.6875,2.6875h-59.125c-1.48427,0 -2.6875,-1.20323 -2.6875,-2.6875zM43,93.70557l-6.96021,3.02869c-8.83171,3.84154 -14.54279,12.5566 -14.53979,22.18762v39.64063c0,1.48427 1.20323,2.6875 2.6875,2.6875h18.8125zM129,93.70557v67.54443h18.8125c1.48427,0 2.6875,-1.20323 2.6875,-2.6875v-39.64062c0.00257,-9.6309 -5.70836,-18.34574 -14.53979,-22.18762zM61.70227,118.25c0.73167,-0.03004 1.44391,0.23979 1.97202,0.74709c0.5281,0.5073 0.82633,1.20812 0.82571,1.94041c0,1.48427 -1.20323,2.6875 -2.6875,2.6875c-1.48427,0.03044 -2.71218,-1.14812 -2.74262,-2.63238c-0.03044,-1.48427 1.14812,-2.71218 2.63238,-2.74262zM110.26624,118.25c1.48427,0.02174 2.66987,1.2426 2.64813,2.72687c-0.02174,1.48427 -1.2426,2.66987 -2.72687,2.64813c-1.48427,0 -2.6875,-1.20323 -2.6875,-2.6875c-0.00031,-0.72662 0.29362,-1.42241 0.81478,-1.92874c0.52116,-0.50633 1.22514,-0.78005 1.95145,-0.75876zM67.1875,139.75v21.5h37.625v-21.5z"></path></g></g></svg>